<svg width="348" height="71" viewBox="0 0 348 71" fill="none" xmlns="http://www.w3.org/2000/svg">
<rect width="348" height="71" fill="white"/>
<mask id="path-1-outside-1_0_4" maskUnits="userSpaceOnUse" x="13" y="22" width="320" height="37" fill="black">
<rect fill="white" x="13" y="22" width="320" height="37"/>
<path d="M14.3619 56.3409V47.1875H16.0494C16.6289 46.6591 17.1744 45.9134 17.6857 44.9503C18.2056 43.9787 18.6445 42.6832 19.0025 41.0639C19.369 39.4361 19.6119 37.3693 19.7312 34.8636L20.2937 23.8182H35.8391V47.1875H38.8562V56.2898H35.8391V50H17.3789V56.3409H14.3619ZM19.8335 47.1875H32.8221V26.6307H23.1573L22.7482 34.8636C22.646 36.7727 22.467 38.5028 22.2113 40.054C21.9556 41.5966 21.6275 42.9645 21.2269 44.1577C20.8263 45.3423 20.3619 46.3523 19.8335 47.1875ZM51.2152 50.4091C49.4425 50.4091 47.8871 49.9872 46.549 49.1435C45.2195 48.2997 44.1797 47.1193 43.4297 45.6023C42.6882 44.0852 42.3175 42.3125 42.3175 40.2841C42.3175 38.2386 42.6882 36.4531 43.4297 34.9276C44.1797 33.402 45.2195 32.2173 46.549 31.3736C47.8871 30.5298 49.4425 30.108 51.2152 30.108C52.9879 30.108 54.5391 30.5298 55.8686 31.3736C57.2067 32.2173 58.2464 33.402 58.9879 34.9276C59.7379 36.4531 60.1129 38.2386 60.1129 40.2841C60.1129 42.3125 59.7379 44.0852 58.9879 45.6023C58.2464 47.1193 57.2067 48.2997 55.8686 49.1435C54.5391 49.9872 52.9879 50.4091 51.2152 50.4091ZM51.2152 47.6989C52.5618 47.6989 53.6697 47.3537 54.5391 46.6634C55.4084 45.973 56.0518 45.0653 56.4695 43.9403C56.8871 42.8153 57.0959 41.5966 57.0959 40.2841C57.0959 38.9716 56.8871 37.7486 56.4695 36.6151C56.0518 35.4815 55.4084 34.5653 54.5391 33.8665C53.6697 33.1676 52.5618 32.8182 51.2152 32.8182C49.8686 32.8182 48.7607 33.1676 47.8913 33.8665C47.022 34.5653 46.3786 35.4815 45.9609 36.6151C45.5433 37.7486 45.3345 38.9716 45.3345 40.2841C45.3345 41.5966 45.5433 42.8153 45.9609 43.9403C46.3786 45.0653 47.022 45.973 47.8913 46.6634C48.7607 47.3537 49.8686 47.6989 51.2152 47.6989ZM75.457 45.9091L82.3093 30.3636H85.1729L76.6843 50H74.2298L65.8945 30.3636H68.707L75.457 45.9091ZM67.7354 30.3636V50H64.7184V30.3636H67.7354ZM83.1786 50V30.3636H86.1957V50H83.1786ZM97.4968 50.4602C96.2525 50.4602 95.1232 50.2259 94.109 49.7571C93.0948 49.2798 92.2894 48.5938 91.6928 47.6989C91.0962 46.7955 90.7979 45.7045 90.7979 44.4261C90.7979 43.3011 91.0195 42.3892 91.4627 41.6903C91.9059 40.983 92.4982 40.429 93.2397 40.0284C93.9812 39.6278 94.7994 39.3295 95.6942 39.1335C96.5977 38.929 97.5053 38.767 98.4173 38.6477C99.6104 38.4943 100.578 38.3793 101.319 38.3026C102.069 38.2173 102.615 38.0767 102.956 37.8807C103.305 37.6847 103.48 37.3437 103.48 36.858V36.7557C103.48 35.4943 103.135 34.5142 102.444 33.8153C101.762 33.1165 100.727 32.767 99.3377 32.767C97.8974 32.767 96.7681 33.0824 95.9499 33.7131C95.1317 34.3437 94.5565 35.017 94.2241 35.733L91.3604 34.7102C91.8718 33.517 92.5536 32.5881 93.4059 31.9233C94.2667 31.25 95.2042 30.7812 96.2184 30.517C97.2411 30.2443 98.2468 30.108 99.2354 30.108C99.8661 30.108 100.591 30.1847 101.409 30.3381C102.235 30.483 103.032 30.7855 103.799 31.2457C104.575 31.706 105.218 32.4006 105.73 33.3295C106.241 34.2585 106.497 35.5028 106.497 37.0625V50H103.48V47.3409H103.326C103.122 47.767 102.781 48.223 102.304 48.7088C101.826 49.1946 101.191 49.608 100.399 49.9489C99.6062 50.2898 98.6389 50.4602 97.4968 50.4602ZM97.957 47.75C99.1502 47.75 100.156 47.5156 100.974 47.0469C101.801 46.5781 102.423 45.973 102.841 45.2315C103.267 44.4901 103.48 43.7102 103.48 42.892V40.1307C103.352 40.2841 103.071 40.4247 102.636 40.5526C102.21 40.6719 101.716 40.7784 101.153 40.8722C100.599 40.9574 100.058 41.0341 99.5295 41.1023C99.0096 41.1619 98.5877 41.2131 98.2639 41.2557C97.4798 41.358 96.7468 41.5241 96.065 41.7543C95.3917 41.9759 94.8462 42.3125 94.4286 42.7642C94.0195 43.2074 93.815 43.8125 93.815 44.5795C93.815 45.6278 94.2028 46.4205 94.9783 46.9574C95.7624 47.4858 96.7553 47.75 97.957 47.75ZM112.004 30.3636H115.021V47.1875H122.435V30.3636H125.452V47.1875H132.867V30.3636H135.884V50H112.004V30.3636ZM154.536 38.8011V41.6136H143.695V38.8011H154.536ZM144.411 30.3636V50H141.394V30.3636H144.411ZM156.837 30.3636V50H153.82V30.3636H156.837ZM174.16 50V33.125H168.944C167.768 33.125 166.843 33.3977 166.17 33.9432C165.496 34.4886 165.16 35.2386 165.16 36.1932C165.16 37.1307 165.462 37.8679 166.067 38.4048C166.681 38.9418 167.521 39.2102 168.586 39.2102H174.927V42.0227H168.586C167.256 42.0227 166.11 41.7884 165.147 41.3196C164.184 40.8509 163.442 40.1818 162.923 39.3125C162.403 38.4347 162.143 37.3949 162.143 36.1932C162.143 34.983 162.415 33.9432 162.961 33.0739C163.506 32.2045 164.286 31.5355 165.3 31.0668C166.323 30.598 167.538 30.3636 168.944 30.3636H177.023V50H174.16ZM161.069 50L166.643 40.233H169.915L164.342 50H161.069ZM192.687 50V30.3636H208.13V50H205.113V33.1761H195.704V50H192.687ZM221.873 50.4091C219.981 50.4091 218.349 49.9915 216.977 49.1562C215.613 48.3125 214.561 47.1364 213.819 45.6278C213.086 44.1108 212.72 42.3466 212.72 40.3352C212.72 38.3239 213.086 36.5511 213.819 35.017C214.561 33.4744 215.592 32.2727 216.913 31.4119C218.243 30.5426 219.794 30.108 221.566 30.108C222.589 30.108 223.599 30.2784 224.596 30.6193C225.593 30.9602 226.501 31.5142 227.319 32.2812C228.137 33.0398 228.789 34.0455 229.275 35.2983C229.761 36.5511 230.004 38.0937 230.004 39.9261V41.2045H214.868V38.5966H226.936C226.936 37.4886 226.714 36.5 226.271 35.6307C225.836 34.7614 225.214 34.0753 224.404 33.5724C223.603 33.0696 222.657 32.8182 221.566 32.8182C220.365 32.8182 219.325 33.1165 218.447 33.7131C217.578 34.3011 216.909 35.0682 216.44 36.0142C215.971 36.9602 215.737 37.9744 215.737 39.0568V40.7955C215.737 42.2784 215.993 43.5355 216.504 44.5668C217.024 45.5895 217.744 46.3693 218.664 46.9062C219.585 47.4347 220.654 47.6989 221.873 47.6989C222.666 47.6989 223.382 47.5881 224.021 47.3665C224.669 47.1364 225.227 46.7955 225.696 46.3438C226.164 45.8835 226.527 45.3125 226.782 44.6307L229.697 45.4489C229.39 46.4375 228.875 47.3068 228.15 48.0568C227.426 48.7983 226.531 49.3778 225.466 49.7955C224.4 50.2045 223.203 50.4091 221.873 50.4091ZM234.593 50V30.3636H237.61V38.9034H239.605L246.662 30.3636H250.548L242.622 39.8239L250.65 50H246.764L240.321 41.7159H237.61V50H234.593ZM259.708 50.4602C258.463 50.4602 257.334 50.2259 256.32 49.7571C255.306 49.2798 254.5 48.5938 253.904 47.6989C253.307 46.7955 253.009 45.7045 253.009 44.4261C253.009 43.3011 253.23 42.3892 253.674 41.6903C254.117 40.983 254.709 40.429 255.451 40.0284C256.192 39.6278 257.01 39.3295 257.905 39.1335C258.809 38.929 259.716 38.767 260.628 38.6477C261.821 38.4943 262.789 38.3793 263.53 38.3026C264.28 38.2173 264.826 38.0767 265.167 37.8807C265.516 37.6847 265.691 37.3437 265.691 36.858V36.7557C265.691 35.4943 265.346 34.5142 264.655 33.8153C263.973 33.1165 262.938 32.767 261.549 32.767C260.108 32.767 258.979 33.0824 258.161 33.7131C257.343 34.3437 256.767 35.017 256.435 35.733L253.571 34.7102C254.083 33.517 254.765 32.5881 255.617 31.9233C256.478 31.25 257.415 30.7812 258.429 30.517C259.452 30.2443 260.458 30.108 261.446 30.108C262.077 30.108 262.801 30.1847 263.62 30.3381C264.446 30.483 265.243 30.7855 266.01 31.2457C266.786 31.706 267.429 32.4006 267.941 33.3295C268.452 34.2585 268.708 35.5028 268.708 37.0625V50H265.691V47.3409H265.537C265.333 47.767 264.992 48.223 264.515 48.7088C264.037 49.1946 263.402 49.608 262.61 49.9489C261.817 50.2898 260.85 50.4602 259.708 50.4602ZM260.168 47.75C261.361 47.75 262.367 47.5156 263.185 47.0469C264.012 46.5781 264.634 45.973 265.051 45.2315C265.478 44.4901 265.691 43.7102 265.691 42.892V40.1307C265.563 40.2841 265.282 40.4247 264.847 40.5526C264.421 40.6719 263.926 40.7784 263.364 40.8722C262.81 40.9574 262.269 41.0341 261.74 41.1023C261.221 41.1619 260.799 41.2131 260.475 41.2557C259.691 41.358 258.958 41.5241 258.276 41.7543C257.603 41.9759 257.057 42.3125 256.64 42.7642C256.23 43.2074 256.026 43.8125 256.026 44.5795C256.026 45.6278 256.414 46.4205 257.189 46.9574C257.973 47.4858 258.966 47.75 260.168 47.75ZM274.214 57.3636V30.3636H277.129V33.483H277.487C277.709 33.142 278.016 32.7074 278.408 32.179C278.808 31.642 279.379 31.1648 280.121 30.7472C280.871 30.321 281.885 30.108 283.163 30.108C284.817 30.108 286.274 30.5213 287.536 31.348C288.797 32.1747 289.781 33.3466 290.489 34.8636C291.196 36.3807 291.55 38.1705 291.55 40.233C291.55 42.3125 291.196 44.1151 290.489 45.6406C289.781 47.1577 288.801 48.3338 287.548 49.169C286.295 49.9957 284.851 50.4091 283.214 50.4091C281.953 50.4091 280.943 50.2003 280.185 49.7827C279.426 49.3565 278.842 48.875 278.433 48.3381C278.024 47.7926 277.709 47.3409 277.487 46.983H277.232V57.3636H274.214ZM277.18 40.1818C277.18 41.6648 277.398 42.973 277.832 44.1065C278.267 45.2315 278.902 46.1136 279.737 46.7528C280.572 47.3835 281.595 47.6989 282.805 47.6989C284.067 47.6989 285.119 47.3665 285.963 46.7017C286.815 46.0284 287.455 45.125 287.881 43.9915C288.315 42.8494 288.533 41.5795 288.533 40.1818C288.533 38.8011 288.32 37.5568 287.893 36.4489C287.476 35.3324 286.841 34.4503 285.989 33.8026C285.145 33.1463 284.084 32.8182 282.805 32.8182C281.578 32.8182 280.547 33.1293 279.712 33.7514C278.876 34.3651 278.246 35.2259 277.82 36.3338C277.393 37.4332 277.18 38.7159 277.18 40.1818ZM309.294 38.8011V41.6136H298.453V38.8011H309.294ZM299.169 30.3636V50H296.152V30.3636H299.169ZM311.595 30.3636V50H308.578V30.3636H311.595ZM328.918 50V33.125H323.702C322.526 33.125 321.601 33.3977 320.928 33.9432C320.254 34.4886 319.918 35.2386 319.918 36.1932C319.918 37.1307 320.22 37.8679 320.825 38.4048C321.439 38.9418 322.278 39.2102 323.344 39.2102H329.685V42.0227H323.344C322.014 42.0227 320.868 41.7884 319.905 41.3196C318.942 40.8509 318.2 40.1818 317.68 39.3125C317.161 38.4347 316.901 37.3949 316.901 36.1932C316.901 34.983 317.173 33.9432 317.719 33.0739C318.264 32.2045 319.044 31.5355 320.058 31.0668C321.081 30.598 322.295 30.3636 323.702 30.3636H331.781V50H328.918ZM315.827 50L321.401 40.233H324.673L319.099 50H315.827Z"/>
</mask>
<path d="M14.3619 56.3409H13.3619V57.3409H14.3619V56.3409ZM14.3619 47.1875V46.1875H13.3619V47.1875H14.3619ZM16.0494 47.1875V48.1875H16.4368L16.7231 47.9265L16.0494 47.1875ZM17.6857 44.9503L16.804 44.4785L16.8025 44.4813L17.6857 44.9503ZM19.0025 41.0639L18.0269 40.8443L18.0261 40.8481L19.0025 41.0639ZM19.7312 34.8636L18.7325 34.8128L18.7323 34.8161L19.7312 34.8636ZM20.2937 23.8182V22.8182H19.3433L19.295 23.7673L20.2937 23.8182ZM35.8391 23.8182H36.8391V22.8182H35.8391V23.8182ZM35.8391 47.1875H34.8391V48.1875H35.8391V47.1875ZM38.8562 47.1875H39.8562V46.1875H38.8562V47.1875ZM38.8562 56.2898V57.2898H39.8562V56.2898H38.8562ZM35.8391 56.2898H34.8391V57.2898H35.8391V56.2898ZM35.8391 50H36.8391V49H35.8391V50ZM17.3789 50V49H16.3789V50H17.3789ZM17.3789 56.3409V57.3409H18.3789V56.3409H17.3789ZM19.8335 47.1875L18.9884 46.6529L18.0175 48.1875H19.8335V47.1875ZM32.8221 47.1875V48.1875H33.8221V47.1875H32.8221ZM32.8221 26.6307H33.8221V25.6307H32.8221V26.6307ZM23.1573 26.6307V25.6307H22.2058L22.1585 26.5811L23.1573 26.6307ZM22.7482 34.8636L23.7468 34.9171L23.747 34.9133L22.7482 34.8636ZM22.2113 40.054L23.1978 40.2175L23.198 40.2166L22.2113 40.054ZM21.2269 44.1577L22.1742 44.478L22.1749 44.4759L21.2269 44.1577ZM14.3619 56.3409H15.3619V47.1875H14.3619H13.3619V56.3409H14.3619ZM14.3619 47.1875V48.1875H16.0494V47.1875V46.1875H14.3619V47.1875ZM16.0494 47.1875L16.7231 47.9265C17.4134 47.297 18.0232 46.4471 18.5689 45.4192L17.6857 44.9503L16.8025 44.4813C16.3255 45.3796 15.8444 46.0211 15.3756 46.4485L16.0494 47.1875ZM17.6857 44.9503L18.5674 45.4221C19.1463 44.3403 19.6101 42.9482 19.9789 41.2798L19.0025 41.0639L18.0261 40.8481C17.679 42.4183 17.2649 43.6171 16.804 44.4785L17.6857 44.9503ZM19.0025 41.0639L19.9781 41.2836C20.3619 39.5786 20.6092 37.449 20.73 34.9112L19.7312 34.8636L18.7323 34.8161C18.6145 37.2896 18.376 39.2936 18.0269 40.8443L19.0025 41.0639ZM19.7312 34.8636L20.7299 34.9145L21.2924 23.869L20.2937 23.8182L19.295 23.7673L18.7325 34.8128L19.7312 34.8636ZM20.2937 23.8182V24.8182H35.8391V23.8182V22.8182H20.2937V23.8182ZM35.8391 23.8182H34.8391V47.1875H35.8391H36.8391V23.8182H35.8391ZM35.8391 47.1875V48.1875H38.8562V47.1875V46.1875H35.8391V47.1875ZM38.8562 47.1875H37.8562V56.2898H38.8562H39.8562V47.1875H38.8562ZM38.8562 56.2898V55.2898H35.8391V56.2898V57.2898H38.8562V56.2898ZM35.8391 56.2898H36.8391V50H35.8391H34.8391V56.2898H35.8391ZM35.8391 50V49H17.3789V50V51H35.8391V50ZM17.3789 50H16.3789V56.3409H17.3789H18.3789V50H17.3789ZM17.3789 56.3409V55.3409H14.3619V56.3409V57.3409H17.3789V56.3409ZM19.8335 47.1875V48.1875H32.8221V47.1875V46.1875H19.8335V47.1875ZM32.8221 47.1875H33.8221V26.6307H32.8221H31.8221V47.1875H32.8221ZM32.8221 26.6307V25.6307H23.1573V26.6307V27.6307H32.8221V26.6307ZM23.1573 26.6307L22.1585 26.5811L21.7495 34.814L22.7482 34.8636L23.747 34.9133L24.1561 26.6803L23.1573 26.6307ZM22.7482 34.8636L21.7497 34.8101C21.6489 36.6902 21.4732 38.3831 21.2246 39.8913L22.2113 40.054L23.198 40.2166C23.4607 38.6226 23.643 36.8553 23.7468 34.9171L22.7482 34.8636ZM22.2113 40.054L21.2248 39.8905C20.9758 41.3926 20.6591 42.7071 20.2789 43.8394L21.2269 44.1577L22.1749 44.4759C22.5959 43.2219 22.9354 41.8006 23.1978 40.2175L22.2113 40.054ZM21.2269 44.1577L20.2796 43.8374C19.8981 44.9656 19.4648 45.8997 18.9884 46.6529L19.8335 47.1875L20.6785 47.7221C21.2589 46.8048 21.7546 45.719 22.1742 44.478L21.2269 44.1577ZM46.549 49.1435L46.0132 49.9878L46.0156 49.9893L46.549 49.1435ZM43.4297 45.6023L42.5312 46.0414L42.5333 46.0455L43.4297 45.6023ZM43.4297 34.9276L42.5323 34.4864L42.5303 34.4904L43.4297 34.9276ZM46.549 31.3736L46.0156 30.5277L46.0132 30.5293L46.549 31.3736ZM55.8686 31.3736L55.3328 32.2179L55.3352 32.2195L55.8686 31.3736ZM58.9879 34.9276L58.0885 35.3647L58.0905 35.3687L58.9879 34.9276ZM58.9879 45.6023L58.0915 45.1591L58.0895 45.1632L58.9879 45.6023ZM55.8686 49.1435L55.3352 48.2976L55.3328 48.2991L55.8686 49.1435ZM54.5391 46.6634L53.9172 45.8802V45.8802L54.5391 46.6634ZM56.4695 43.9403L57.407 44.2883V44.2883L56.4695 43.9403ZM56.4695 36.6151L57.4078 36.2694V36.2694L56.4695 36.6151ZM54.5391 33.8665L55.1656 33.0871V33.0871L54.5391 33.8665ZM47.8913 33.8665L47.2648 33.0871V33.0871L47.8913 33.8665ZM45.9609 36.6151L45.0226 36.2694V36.2694L45.9609 36.6151ZM45.9609 43.9403L45.0234 44.2883V44.2883L45.9609 43.9403ZM47.8913 46.6634L48.5132 45.8802V45.8802L47.8913 46.6634ZM51.2152 50.4091V49.4091C49.6078 49.4091 48.242 49.0288 47.0824 48.2976L46.549 49.1435L46.0156 49.9893C47.5321 50.9456 49.2772 51.4091 51.2152 51.4091V50.4091ZM46.549 49.1435L47.0848 48.2991C45.9215 47.5609 45.0012 46.5247 44.3261 45.1591L43.4297 45.6023L42.5333 46.0455C43.3581 47.714 44.5174 49.0385 46.0132 49.9878L46.549 49.1435ZM43.4297 45.6023L44.3281 45.1632C43.6656 43.8077 43.3175 42.1906 43.3175 40.2841H42.3175H41.3175C41.3175 42.4344 41.7108 44.3628 42.5313 46.0414L43.4297 45.6023ZM42.3175 40.2841H43.3175C43.3175 38.3593 43.6661 36.7289 44.3291 35.3647L43.4297 34.9276L42.5303 34.4904C41.7104 36.1774 41.3175 38.1179 41.3175 40.2841H42.3175ZM43.4297 34.9276L44.3271 35.3687C45.0026 33.9946 45.9229 32.9553 47.0848 32.2179L46.549 31.3736L46.0132 30.5293C44.516 31.4794 43.3567 32.8094 42.5323 34.4864L43.4297 34.9276ZM46.549 31.3736L47.0824 32.2195C48.242 31.4882 49.6078 31.108 51.2152 31.108V30.108V29.108C49.2772 29.108 47.5321 29.5714 46.0156 30.5277L46.549 31.3736ZM51.2152 30.108V31.108C52.8227 31.108 54.183 31.4882 55.3328 32.2179L55.8686 31.3736L56.4044 30.5293C54.8951 29.5714 53.1531 29.108 51.2152 29.108V30.108ZM55.8686 31.3736L55.3352 32.2195C56.5041 32.9565 57.4224 33.9942 58.0885 35.3647L58.9879 34.9276L59.8873 34.4904C59.0705 32.8098 57.9093 31.4781 56.402 30.5277L55.8686 31.3736ZM58.9879 34.9276L58.0905 35.3687C58.7607 36.7319 59.1129 38.3609 59.1129 40.2841H60.1129H61.1129C61.1129 38.1164 60.7152 36.1743 59.8853 34.4864L58.9879 34.9276ZM60.1129 40.2841H59.1129C59.1129 42.189 58.7611 43.8046 58.0915 45.1591L58.9879 45.6023L59.8844 46.0455C60.7147 44.3659 61.1129 42.436 61.1129 40.2841H60.1129ZM58.9879 45.6023L58.0895 45.1632C57.4238 46.5251 56.5055 47.5596 55.3352 48.2976L55.8686 49.1435L56.402 49.9893C57.9078 49.0398 59.0691 47.7136 59.8864 46.0414L58.9879 45.6023ZM55.8686 49.1435L55.3328 48.2991C54.183 49.0288 52.8227 49.4091 51.2152 49.4091V50.4091V51.4091C53.1531 51.4091 54.8951 50.9456 56.4044 49.9878L55.8686 49.1435ZM51.2152 47.6989V48.6989C52.738 48.6989 54.0794 48.3053 55.1609 47.4465L54.5391 46.6634L53.9172 45.8802C53.26 46.4021 52.3856 46.6989 51.2152 46.6989V47.6989ZM54.5391 46.6634L55.1609 47.4465C56.1847 46.6334 56.9312 45.5701 57.407 44.2883L56.4695 43.9403L55.532 43.5923C55.1725 44.5606 54.632 45.3126 53.9172 45.8802L54.5391 46.6634ZM56.4695 43.9403L57.407 44.2883C57.8696 43.042 58.0959 41.7042 58.0959 40.2841H57.0959H56.0959C56.0959 41.4889 55.9045 42.5887 55.532 43.5923L56.4695 43.9403ZM57.0959 40.2841H58.0959C58.0959 38.8638 57.8696 37.5228 57.4078 36.2694L56.4695 36.6151L55.5311 36.9608C55.9046 37.9744 56.0959 39.0793 56.0959 40.2841H57.0959ZM56.4695 36.6151L57.4078 36.2694C56.9329 34.9803 56.1879 33.909 55.1656 33.0871L54.5391 33.8665L53.9125 34.6459C54.6288 35.2217 55.1708 35.9828 55.5311 36.9608L56.4695 36.6151ZM54.5391 33.8665L55.1656 33.0871C54.084 32.2176 52.7408 31.8182 51.2152 31.8182V32.8182V33.8182C52.3828 33.8182 53.2555 34.1177 53.9125 34.6459L54.5391 33.8665ZM51.2152 32.8182V31.8182C49.6896 31.8182 48.3464 32.2176 47.2648 33.0871L47.8913 33.8665L48.5179 34.6459C49.1749 34.1177 50.0476 33.8182 51.2152 33.8182V32.8182ZM47.8913 33.8665L47.2648 33.0871C46.2425 33.909 45.4975 34.9803 45.0226 36.2694L45.9609 36.6151L46.8993 36.9608C47.2596 35.9828 47.8016 35.2217 48.5179 34.6459L47.8913 33.8665ZM45.9609 36.6151L45.0226 36.2694C44.5608 37.5228 44.3345 38.8638 44.3345 40.2841H45.3345H46.3345C46.3345 39.0793 46.5258 37.9744 46.8993 36.9608L45.9609 36.6151ZM45.3345 40.2841H44.3345C44.3345 41.7042 44.5608 43.042 45.0234 44.2883L45.9609 43.9403L46.8984 43.5923C46.5259 42.5887 46.3345 41.4889 46.3345 40.2841H45.3345ZM45.9609 43.9403L45.0234 44.2883C45.4992 45.5701 46.2457 46.6334 47.2695 47.4465L47.8913 46.6634L48.5132 45.8802C47.7984 45.3126 47.2579 44.5606 46.8984 43.5923L45.9609 43.9403ZM47.8913 46.6634L47.2695 47.4465C48.3509 48.3053 49.6924 48.6989 51.2152 48.6989V47.6989V46.6989C50.0448 46.6989 49.1704 46.4021 48.5132 45.8802L47.8913 46.6634ZM75.457 45.9091L74.5398 46.3074L75.4501 48.404L76.3721 46.3124L75.457 45.9091ZM82.3093 30.3636V29.3636H81.6573L81.3943 29.9603L82.3093 30.3636ZM85.1729 30.3636L86.0908 30.7604L86.6947 29.3636H85.1729V30.3636ZM76.6843 50V51H77.3415L77.6022 50.3968L76.6843 50ZM74.2298 50L73.3093 50.3907L73.5679 51H74.2298V50ZM65.8945 30.3636V29.3636H64.3837L64.974 30.7544L65.8945 30.3636ZM68.707 30.3636L69.6243 29.9654L69.363 29.3636H68.707V30.3636ZM67.7354 30.3636H68.7354V29.3636H67.7354V30.3636ZM67.7354 50V51H68.7354V50H67.7354ZM64.7184 50H63.7184V51H64.7184V50ZM64.7184 30.3636V29.3636H63.7184V30.3636H64.7184ZM83.1786 50H82.1786V51H83.1786V50ZM83.1786 30.3636V29.3636H82.1786V30.3636H83.1786ZM86.1957 30.3636H87.1957V29.3636H86.1957V30.3636ZM86.1957 50V51H87.1957V50H86.1957ZM75.457 45.9091L76.3721 46.3124L83.2243 30.767L82.3093 30.3636L81.3943 29.9603L74.542 45.5057L75.457 45.9091ZM82.3093 30.3636V31.3636H85.1729V30.3636V29.3636H82.3093V30.3636ZM85.1729 30.3636L84.255 29.9668L75.7664 49.6032L76.6843 50L77.6022 50.3968L86.0908 30.7604L85.1729 30.3636ZM76.6843 50V49H74.2298V50V51H76.6843V50ZM74.2298 50L75.1503 49.6093L66.815 29.9729L65.8945 30.3636L64.974 30.7544L73.3093 50.3907L74.2298 50ZM65.8945 30.3636V31.3636H68.707V30.3636V29.3636H65.8945V30.3636ZM68.707 30.3636L67.7898 30.7619L74.5398 46.3074L75.457 45.9091L76.3743 45.5108L69.6243 29.9654L68.707 30.3636ZM67.7354 30.3636H66.7354V50H67.7354H68.7354V30.3636H67.7354ZM67.7354 50V49H64.7184V50V51H67.7354V50ZM64.7184 50H65.7184V30.3636H64.7184H63.7184V50H64.7184ZM64.7184 30.3636V31.3636H67.7354V30.3636V29.3636H64.7184V30.3636ZM83.1786 50H84.1786V30.3636H83.1786H82.1786V50H83.1786ZM83.1786 30.3636V31.3636H86.1957V30.3636V29.3636H83.1786V30.3636ZM86.1957 30.3636H85.1957V50H86.1957H87.1957V30.3636H86.1957ZM86.1957 50V49H83.1786V50V51H86.1957V50ZM94.109 49.7571L93.6832 50.6619L93.6895 50.6648L94.109 49.7571ZM91.6928 47.6989L90.8584 48.2499L90.8608 48.2536L91.6928 47.6989ZM91.4627 41.6903L92.3072 42.2259L92.3101 42.2213L91.4627 41.6903ZM95.6942 39.1335L95.9082 40.1104L95.9151 40.1088L95.6942 39.1335ZM98.4173 38.6477L98.2897 37.6559L98.2875 37.6562L98.4173 38.6477ZM101.319 38.3026L101.422 39.2973L101.432 39.2962L101.319 38.3026ZM102.956 37.8807L102.466 37.0085L102.457 37.0138L102.956 37.8807ZM102.444 33.8153L101.728 34.5137L101.733 34.5181L102.444 33.8153ZM95.9499 33.7131L96.5604 34.5051V34.5051L95.9499 33.7131ZM94.2241 35.733L93.8877 36.6747L94.7469 36.9815L95.1311 36.1541L94.2241 35.733ZM91.3604 34.7102L90.4413 34.3163L90.0222 35.2942L91.0241 35.652L91.3604 34.7102ZM93.4059 31.9233L94.0209 32.7118L94.022 32.711L93.4059 31.9233ZM96.2184 30.517L96.4705 31.4848L96.4761 31.4833L96.2184 30.517ZM101.409 30.3381L101.224 31.321L101.236 31.3231L101.409 30.3381ZM103.799 31.2457L103.285 32.1032L103.289 32.1057L103.799 31.2457ZM105.73 33.3295L104.854 33.8118V33.8118L105.73 33.3295ZM106.497 50V51H107.497V50H106.497ZM103.48 50H102.48V51H103.48V50ZM103.48 47.3409H104.48V46.3409H103.48V47.3409ZM103.326 47.3409V46.3409H102.697L102.425 46.9082L103.326 47.3409ZM102.304 48.7088L103.017 49.4096V49.4096L102.304 48.7088ZM100.399 49.9489L100.004 49.0302L100.399 49.9489ZM100.974 47.0469L100.481 46.177L100.477 46.1792L100.974 47.0469ZM102.841 45.2315L101.974 44.7332L101.969 44.7408L102.841 45.2315ZM103.48 40.1307H104.48V37.3686L102.712 39.4905L103.48 40.1307ZM102.636 40.5526L102.906 41.5156L102.918 41.5119L102.636 40.5526ZM101.153 40.8722L101.305 41.8606L101.317 41.8586L101.153 40.8722ZM99.5295 41.1023L99.6435 42.0959L99.6574 42.0941L99.5295 41.1023ZM98.2638 41.2557L98.3932 42.2473L98.3943 42.2471L98.2638 41.2557ZM96.065 41.7543L96.3776 42.7042L96.3848 42.7018L96.065 41.7543ZM94.4286 42.7642L93.6944 42.0853L93.6938 42.0859L94.4286 42.7642ZM94.9783 46.9574L94.4091 47.7796L94.4195 47.7867L94.9783 46.9574ZM97.4968 50.4602V49.4602C96.3808 49.4602 95.397 49.2507 94.5286 48.8494L94.109 49.7571L93.6895 50.6648C94.8495 51.201 96.1242 51.4602 97.4968 51.4602V50.4602ZM94.109 49.7571L94.5348 48.8523C93.6781 48.4491 93.0161 47.881 92.5249 47.1442L91.6928 47.6989L90.8608 48.2536C91.5628 49.3065 92.5115 50.1105 93.6832 50.6619L94.109 49.7571ZM91.6928 47.6989L92.5273 47.1478C92.057 46.4356 91.7979 45.5447 91.7979 44.4261H90.7979H89.7979C89.7979 45.8644 90.1355 47.1553 90.8584 48.2499L91.6928 47.6989ZM90.7979 44.4261H91.7979C91.7979 43.4248 91.996 42.7167 92.3072 42.2259L91.4627 41.6903L90.6182 41.1548C90.0431 42.0617 89.7979 43.1775 89.7979 44.4261H90.7979ZM91.4627 41.6903L92.3101 42.2213C92.6606 41.6619 93.1241 41.2274 93.715 40.9082L93.2397 40.0284L92.7644 39.1486C91.8723 39.6305 91.1512 40.3041 90.6153 41.1594L91.4627 41.6903ZM93.2397 40.0284L93.715 40.9082C94.3675 40.5557 95.0967 40.2881 95.9082 40.1104L95.6942 39.1335L95.4803 38.1567C94.5021 38.371 93.5948 38.7 92.7644 39.1486L93.2397 40.0284ZM95.6942 39.1335L95.9151 40.1088C96.7886 39.9111 97.6659 39.7546 98.547 39.6393L98.4173 38.6477L98.2875 37.6562C97.3448 37.7795 96.4067 37.9469 95.4734 38.1582L95.6942 39.1335ZM98.4173 38.6477L98.5448 39.6396C99.7341 39.4867 100.692 39.3727 101.422 39.2972L101.319 38.3026L101.216 37.3079C100.463 37.3858 99.4868 37.502 98.2897 37.6559L98.4173 38.6477ZM101.319 38.3026L101.432 39.2962C102.216 39.2071 102.93 39.049 103.454 38.7476L102.956 37.8807L102.457 37.0138C102.3 37.1044 101.922 37.2276 101.206 37.309L101.319 38.3026ZM102.956 37.8807L103.445 38.7528C104.182 38.3394 104.48 37.6145 104.48 36.858H103.48H102.48C102.48 36.9837 102.457 37.0253 102.459 37.0219C102.46 37.0199 102.463 37.014 102.469 37.008C102.475 37.0022 102.476 37.0031 102.466 37.0085L102.956 37.8807ZM103.48 36.858H104.48V36.7557H103.48H102.48V36.858H103.48ZM103.48 36.7557H104.48C104.48 35.3093 104.079 34.0477 103.156 33.1126L102.444 33.8153L101.733 34.5181C102.19 34.9807 102.48 35.6793 102.48 36.7557H103.48ZM102.444 33.8153L103.16 33.117C102.222 32.1559 100.881 31.767 99.3377 31.767V32.767V33.767C100.573 33.767 101.303 34.0771 101.728 34.5137L102.444 33.8153ZM99.3377 32.767V31.767C97.7619 31.767 96.3899 32.1113 95.3394 32.9211L95.9499 33.7131L96.5604 34.5051C97.1463 34.0535 98.0329 33.767 99.3377 33.767V32.767ZM95.9499 33.7131L95.3394 32.9211C94.432 33.6206 93.7347 34.4123 93.3171 35.3118L94.2241 35.733L95.1311 36.1541C95.3782 35.6218 95.8315 35.0669 96.5604 34.5051L95.9499 33.7131ZM94.2241 35.733L94.5604 34.7912L91.6968 33.7685L91.3604 34.7102L91.0241 35.652L93.8877 36.6747L94.2241 35.733ZM91.3604 34.7102L92.2796 35.1041C92.7378 34.035 93.326 33.2538 94.0209 32.7118L93.4059 31.9233L92.7909 31.1348C91.7812 31.9223 91.0058 32.9991 90.4413 34.3163L91.3604 34.7102ZM93.4059 31.9233L94.022 32.711C94.7797 32.1183 95.5943 31.713 96.4705 31.4847L96.2184 30.517L95.9663 29.5493C94.8141 29.8495 93.7536 30.3817 92.7898 31.1356L93.4059 31.9233ZM96.2184 30.517L96.4761 31.4833C97.4206 31.2314 98.3397 31.108 99.2354 31.108V30.108V29.108C98.1539 29.108 97.0616 29.2572 95.9607 29.5508L96.2184 30.517ZM99.2354 30.108V31.108C99.7883 31.108 100.449 31.1755 101.224 31.3209L101.409 30.3381L101.593 29.3552C100.732 29.1938 99.9439 29.108 99.2354 29.108V30.108ZM101.409 30.3381L101.236 31.3231C101.934 31.4454 102.616 31.7019 103.285 32.1032L103.799 31.2457L104.314 30.3882C103.449 29.8691 102.537 29.5205 101.581 29.3531L101.409 30.3381ZM103.799 31.2457L103.289 32.1057C103.886 32.46 104.413 33.0114 104.854 33.8118L105.73 33.3295L106.606 32.8473C106.024 31.7898 105.264 30.9519 104.31 30.3858L103.799 31.2457ZM105.73 33.3295L104.854 33.8118C105.254 34.5396 105.497 35.5977 105.497 37.0625H106.497H107.497C107.497 35.408 107.228 33.9774 106.606 32.8473L105.73 33.3295ZM106.497 37.0625H105.497V50H106.497H107.497V37.0625H106.497ZM106.497 50V49H103.48V50V51H106.497V50ZM103.48 50H104.48V47.3409H103.48H102.48V50H103.48ZM103.48 47.3409V46.3409H103.326V47.3409V48.3409H103.48V47.3409ZM103.326 47.3409L102.425 46.9082C102.284 47.202 102.021 47.5691 101.59 48.008L102.304 48.7088L103.017 49.4096C103.54 48.8769 103.96 48.3321 104.228 47.7736L103.326 47.3409ZM102.304 48.7088L101.59 48.008C101.225 48.3801 100.708 48.7274 100.004 49.0302L100.399 49.9489L100.794 50.8675C101.675 50.4885 102.428 50.0091 103.017 49.4096L102.304 48.7088ZM100.399 49.9489L100.004 49.0302C99.3692 49.3031 98.5447 49.4602 97.4968 49.4602V50.4602V51.4602C98.733 51.4602 99.8431 51.2764 100.794 50.8675L100.399 49.9489ZM97.957 47.75V48.75C99.2791 48.75 100.467 48.4901 101.471 47.9146L100.974 47.0469L100.477 46.1792C99.8452 46.5411 99.0213 46.75 97.957 46.75V47.75ZM100.974 47.0469L101.467 47.9168C102.433 47.3691 103.195 46.6401 103.712 45.7223L102.841 45.2315L101.969 44.7408C101.651 45.3059 101.168 45.7872 100.481 46.177L100.974 47.0469ZM102.841 45.2315L103.708 45.7298C104.217 44.8439 104.48 43.8932 104.48 42.892H103.48H102.48C102.48 43.5273 102.317 44.1362 101.974 44.7332L102.841 45.2315ZM103.48 42.892H104.48V40.1307H103.48H102.48V42.892H103.48ZM103.48 40.1307L102.712 39.4905C102.746 39.4497 102.771 39.4316 102.771 39.4313C102.773 39.4305 102.76 39.4398 102.726 39.4568C102.656 39.4918 102.537 39.5394 102.354 39.5932L102.636 40.5526L102.918 41.5119C103.17 41.4379 103.409 41.3512 103.62 41.2456C103.821 41.1452 104.06 40.9969 104.248 40.7709L103.48 40.1307ZM102.636 40.5526L102.366 39.5896C101.983 39.6969 101.525 39.7963 100.989 39.8858L101.153 40.8722L101.317 41.8586C101.906 41.7605 102.437 41.6468 102.906 41.5155L102.636 40.5526ZM101.153 40.8722L101.001 39.8838C100.455 39.9678 99.9215 40.0434 99.4015 40.1105L99.5295 41.1023L99.6574 42.0941C100.194 42.0248 100.744 41.9469 101.305 41.8605L101.153 40.8722ZM99.5295 41.1023L99.4155 40.1088C98.8929 40.1688 98.465 40.2206 98.1334 40.2642L98.2638 41.2557L98.3943 42.2471C98.7104 42.2055 99.1263 42.1551 99.6435 42.0958L99.5295 41.1023ZM98.2638 41.2557L98.1345 40.2641C97.2919 40.374 96.4946 40.5538 95.7452 40.8068L96.065 41.7543L96.3848 42.7018C96.999 42.4945 97.6676 42.3419 98.3932 42.2473L98.2638 41.2557ZM96.065 41.7543L95.7524 40.8044C94.9426 41.0709 94.2437 41.4911 93.6944 42.0853L94.4286 42.7642L95.1629 43.4431C95.4487 43.1339 95.8408 42.8808 96.3776 42.7041L96.065 41.7543ZM94.4286 42.7642L93.6938 42.0859C93.0716 42.76 92.815 43.632 92.815 44.5795H93.815H94.815C94.815 43.993 94.9675 43.6547 95.1634 43.4425L94.4286 42.7642ZM93.815 44.5795H92.815C92.815 45.9133 93.3305 47.0328 94.4091 47.7796L94.9783 46.9574L95.5475 46.1352C95.0751 45.8081 94.815 45.3424 94.815 44.5795H93.815ZM94.9783 46.9574L94.4195 47.7867C95.4083 48.453 96.61 48.75 97.957 48.75V47.75V46.75C96.9006 46.75 96.1166 46.5186 95.5372 46.1281L94.9783 46.9574ZM112.004 30.3636V29.3636H111.004V30.3636H112.004ZM115.021 30.3636H116.021V29.3636H115.021V30.3636ZM115.021 47.1875H114.021V48.1875H115.021V47.1875ZM122.435 47.1875V48.1875H123.435V47.1875H122.435ZM122.435 30.3636V29.3636H121.435V30.3636H122.435ZM125.452 30.3636H126.452V29.3636H125.452V30.3636ZM125.452 47.1875H124.452V48.1875H125.452V47.1875ZM132.867 47.1875V48.1875H133.867V47.1875H132.867ZM132.867 30.3636V29.3636H131.867V30.3636H132.867ZM135.884 30.3636H136.884V29.3636H135.884V30.3636ZM135.884 50V51H136.884V50H135.884ZM112.004 50H111.004V51H112.004V50ZM112.004 30.3636V31.3636H115.021V30.3636V29.3636H112.004V30.3636ZM115.021 30.3636H114.021V47.1875H115.021H116.021V30.3636H115.021ZM115.021 47.1875V48.1875H122.435V47.1875V46.1875H115.021V47.1875ZM122.435 47.1875H123.435V30.3636H122.435H121.435V47.1875H122.435ZM122.435 30.3636V31.3636H125.452V30.3636V29.3636H122.435V30.3636ZM125.452 30.3636H124.452V47.1875H125.452H126.452V30.3636H125.452ZM125.452 47.1875V48.1875H132.867V47.1875V46.1875H125.452V47.1875ZM132.867 47.1875H133.867V30.3636H132.867H131.867V47.1875H132.867ZM132.867 30.3636V31.3636H135.884V30.3636V29.3636H132.867V30.3636ZM135.884 30.3636H134.884V50H135.884H136.884V30.3636H135.884ZM135.884 50V49H112.004V50V51H135.884V50ZM112.004 50H113.004V30.3636H112.004H111.004V50H112.004ZM154.536 38.8011H155.536V37.8011H154.536V38.8011ZM154.536 41.6136V42.6136H155.536V41.6136H154.536ZM143.695 41.6136H142.695V42.6136H143.695V41.6136ZM143.695 38.8011V37.8011H142.695V38.8011H143.695ZM144.411 30.3636H145.411V29.3636H144.411V30.3636ZM144.411 50V51H145.411V50H144.411ZM141.394 50H140.394V51H141.394V50ZM141.394 30.3636V29.3636H140.394V30.3636H141.394ZM156.837 30.3636H157.837V29.3636H156.837V30.3636ZM156.837 50V51H157.837V50H156.837ZM153.82 50H152.82V51H153.82V50ZM153.82 30.3636V29.3636H152.82V30.3636H153.82ZM154.536 38.8011H153.536V41.6136H154.536H155.536V38.8011H154.536ZM154.536 41.6136V40.6136H143.695V41.6136V42.6136H154.536V41.6136ZM143.695 41.6136H144.695V38.8011H143.695H142.695V41.6136H143.695ZM143.695 38.8011V39.8011H154.536V38.8011V37.8011H143.695V38.8011ZM144.411 30.3636H143.411V50H144.411H145.411V30.3636H144.411ZM144.411 50V49H141.394V50V51H144.411V50ZM141.394 50H142.394V30.3636H141.394H140.394V50H141.394ZM141.394 30.3636V31.3636H144.411V30.3636V29.3636H141.394V30.3636ZM156.837 30.3636H155.837V50H156.837H157.837V30.3636H156.837ZM156.837 50V49H153.82V50V51H156.837V50ZM153.82 50H154.82V30.3636H153.82H152.82V50H153.82ZM153.82 30.3636V31.3636H156.837V30.3636V29.3636H153.82V30.3636ZM174.16 50H173.16V51H174.16V50ZM174.16 33.125H175.16V32.125H174.16V33.125ZM166.17 33.9432L165.54 33.1662V33.1662L166.17 33.9432ZM166.067 38.4048L165.404 39.1528L165.409 39.1574L166.067 38.4048ZM174.927 39.2102H175.927V38.2102H174.927V39.2102ZM174.927 42.0227V43.0227H175.927V42.0227H174.927ZM165.147 41.3196L165.585 40.4205V40.4205L165.147 41.3196ZM162.923 39.3125L162.062 39.8221L162.064 39.8258L162.923 39.3125ZM165.3 31.0668L164.884 30.1577L164.881 30.159L165.3 31.0668ZM177.023 30.3636H178.023V29.3636H177.023V30.3636ZM177.023 50V51H178.023V50H177.023ZM161.069 50L160.2 49.5044L159.347 51H161.069V50ZM166.643 40.233V39.233H166.062L165.774 39.7373L166.643 40.233ZM169.915 40.233L170.784 40.7286L171.638 39.233H169.915V40.233ZM164.342 50V51H164.922L165.21 50.4956L164.342 50ZM174.16 50H175.16V33.125H174.16H173.16V50H174.16ZM174.16 33.125V32.125H168.944V33.125V34.125H174.16V33.125ZM168.944 33.125V32.125C167.62 32.125 166.446 32.4323 165.54 33.1662L166.17 33.9432L166.799 34.7202C167.24 34.3631 167.915 34.125 168.944 34.125V33.125ZM166.17 33.9432L165.54 33.1662C164.607 33.9224 164.16 34.9719 164.16 36.1932H165.16H166.16C166.16 35.5054 166.386 35.0549 166.799 34.7202L166.17 33.9432ZM165.16 36.1932H164.16C164.16 37.3665 164.55 38.3952 165.404 39.1528L166.067 38.4048L166.731 37.6568C166.375 37.3406 166.16 36.8949 166.16 36.1932H165.16ZM166.067 38.4048L165.409 39.1574C166.255 39.8975 167.354 40.2102 168.586 40.2102V39.2102V38.2102C167.687 38.2102 167.107 37.986 166.726 37.6523L166.067 38.4048ZM168.586 39.2102V40.2102H174.927V39.2102V38.2102H168.586V39.2102ZM174.927 39.2102H173.927V42.0227H174.927H175.927V39.2102H174.927ZM174.927 42.0227V41.0227H168.586V42.0227V43.0227H174.927V42.0227ZM168.586 42.0227V41.0227C167.372 41.0227 166.383 40.8088 165.585 40.4205L165.147 41.3196L164.709 42.2188C165.838 42.7679 167.141 43.0227 168.586 43.0227V42.0227ZM165.147 41.3196L165.585 40.4205C164.786 40.0316 164.195 39.492 163.781 38.7992L162.923 39.3125L162.064 39.8258C162.69 40.8716 163.582 41.6701 164.709 42.2188L165.147 41.3196ZM162.923 39.3125L163.783 38.8029C163.37 38.1049 163.143 37.2478 163.143 36.1932H162.143H161.143C161.143 37.542 161.436 38.7644 162.062 39.8221L162.923 39.3125ZM162.143 36.1932H163.143C163.143 35.1368 163.379 34.2887 163.808 33.6054L162.961 33.0739L162.114 32.5424C161.452 33.5976 161.143 34.8291 161.143 36.1932H162.143ZM162.961 33.0739L163.808 33.6054C164.241 32.9148 164.865 32.3694 165.72 31.9745L165.3 31.0668L164.881 30.159C163.707 30.7016 162.771 31.4943 162.114 32.5424L162.961 33.0739ZM165.3 31.0668L165.717 31.9758C166.581 31.58 167.647 31.3636 168.944 31.3636V30.3636V29.3636C167.429 29.3636 166.066 29.616 164.884 30.1577L165.3 31.0668ZM168.944 30.3636V31.3636H177.023V30.3636V29.3636H168.944V30.3636ZM177.023 30.3636H176.023V50H177.023H178.023V30.3636H177.023ZM177.023 50V49H174.16V50V51H177.023V50ZM161.069 50L161.937 50.4956L167.511 40.7286L166.643 40.233L165.774 39.7373L160.2 49.5044L161.069 50ZM166.643 40.233V41.233H169.915V40.233V39.233H166.643V40.233ZM169.915 40.233L169.047 39.7373L163.473 49.5044L164.342 50L165.21 50.4956L170.784 40.7286L169.915 40.233ZM164.342 50V49H161.069V50V51H164.342V50ZM192.687 50H191.687V51H192.687V50ZM192.687 30.3636V29.3636H191.687V30.3636H192.687ZM208.13 30.3636H209.13V29.3636H208.13V30.3636ZM208.13 50V51H209.13V50H208.13ZM205.113 50H204.113V51H205.113V50ZM205.113 33.1761H206.113V32.1761H205.113V33.1761ZM195.704 33.1761V32.1761H194.704V33.1761H195.704ZM195.704 50V51H196.704V50H195.704ZM192.687 50H193.687V30.3636H192.687H191.687V50H192.687ZM192.687 30.3636V31.3636H208.13V30.3636V29.3636H192.687V30.3636ZM208.13 30.3636H207.13V50H208.13H209.13V30.3636H208.13ZM208.13 50V49H205.113V50V51H208.13V50ZM205.113 50H206.113V33.1761H205.113H204.113V50H205.113ZM205.113 33.1761V32.1761H195.704V33.1761V34.1761H205.113V33.1761ZM195.704 33.1761H194.704V50H195.704H196.704V33.1761H195.704ZM195.704 50V49H192.687V50V51H195.704V50ZM216.977 49.1562L216.451 50.0067L216.457 50.0104L216.977 49.1562ZM213.819 45.6278L212.919 46.0629L212.922 46.069L213.819 45.6278ZM213.819 35.017L212.918 34.5838L212.917 34.5859L213.819 35.017ZM216.913 31.4119L217.459 32.2498L217.46 32.2489L216.913 31.4119ZM224.596 30.6193L224.92 29.6731V29.6731L224.596 30.6193ZM227.319 32.2812L226.635 33.0108L226.639 33.0146L227.319 32.2812ZM229.275 35.2983L230.208 34.9368V34.9368L229.275 35.2983ZM230.004 41.2045V42.2045H231.004V41.2045H230.004ZM214.868 41.2045H213.868V42.2045H214.868V41.2045ZM214.868 38.5966V37.5966H213.868V38.5966H214.868ZM226.936 38.5966V39.5966H227.936V38.5966H226.936ZM226.271 35.6307L225.376 36.0779L225.38 36.0849L226.271 35.6307ZM224.404 33.5724L223.873 34.4194L223.877 34.4219L224.404 33.5724ZM218.447 33.7131L219.007 34.5414L219.009 34.5401L218.447 33.7131ZM216.44 36.0142L215.544 35.5702V35.5702L216.44 36.0142ZM216.504 44.5668L215.608 45.011L215.612 45.0199L216.504 44.5668ZM218.664 46.9062L218.161 47.7701L218.167 47.7735L218.664 46.9062ZM224.021 47.3665L224.349 48.3113L224.356 48.3088L224.021 47.3665ZM225.696 46.3438L226.39 47.0639L226.396 47.0573L225.696 46.3438ZM226.782 44.6307L227.053 43.6679L226.168 43.4197L225.846 44.2796L226.782 44.6307ZM229.697 45.4489L230.652 45.7453L230.957 44.7638L229.967 44.4861L229.697 45.4489ZM228.15 48.0568L228.866 48.7557L228.869 48.7516L228.15 48.0568ZM225.466 49.7955L225.824 50.729L225.831 50.7265L225.466 49.7955ZM221.873 50.4091V49.4091C220.132 49.4091 218.686 49.0261 217.497 48.3021L216.977 49.1562L216.457 50.0104C218.012 50.9568 219.831 51.4091 221.873 51.4091V50.4091ZM216.977 49.1562L217.503 48.3059C216.307 47.5658 215.38 46.5352 214.717 45.1867L213.819 45.6278L212.922 46.069C213.742 47.7375 214.919 49.0592 216.451 50.0066L216.977 49.1562ZM213.819 45.6278L214.72 45.1928C214.064 43.8352 213.72 42.2248 213.72 40.3352H212.72H211.72C211.72 42.4684 212.109 44.3864 212.919 46.0629L213.819 45.6278ZM212.72 40.3352H213.72C213.72 38.446 214.064 36.8252 214.722 35.4481L213.819 35.017L212.917 34.5859C212.109 36.2771 211.72 38.2017 211.72 40.3352H212.72ZM213.819 35.017L214.721 35.4503C215.39 34.0579 216.304 33.0022 217.459 32.2498L216.913 31.4119L216.367 30.5741C214.88 31.5432 213.732 32.891 212.918 34.5838L213.819 35.017ZM216.913 31.4119L217.46 32.2489C218.609 31.498 219.965 31.108 221.566 31.108V30.108V29.108C219.623 29.108 217.876 29.5872 216.366 30.575L216.913 31.4119ZM221.566 30.108V31.108C222.476 31.108 223.377 31.2591 224.273 31.5655L224.596 30.6193L224.92 29.6731C223.822 29.2977 222.703 29.108 221.566 29.108V30.108ZM224.596 30.6193L224.273 31.5655C225.127 31.8577 225.914 32.3344 226.635 33.0108L227.319 32.2812L228.003 31.5517C227.088 30.694 226.06 30.0628 224.92 29.6731L224.596 30.6193ZM227.319 32.2812L226.639 33.0146C227.326 33.651 227.901 34.5199 228.343 35.6598L229.275 35.2983L230.208 34.9368C229.678 33.571 228.949 32.4286 227.999 31.5479L227.319 32.2812ZM229.275 35.2983L228.343 35.6598C228.771 36.7638 229.004 38.1754 229.004 39.9261H230.004H231.004C231.004 38.0121 230.751 36.3385 230.208 34.9368L229.275 35.2983ZM230.004 39.9261H229.004V41.2045H230.004H231.004V39.9261H230.004ZM230.004 41.2045V40.2045H214.868V41.2045V42.2045H230.004V41.2045ZM214.868 41.2045H215.868V38.5966H214.868H213.868V41.2045H214.868ZM214.868 38.5966V39.5966H226.936V38.5966V37.5966H214.868V38.5966ZM226.936 38.5966H227.936C227.936 37.3523 227.686 36.2045 227.162 35.1765L226.271 35.6307L225.38 36.0849C225.742 36.7955 225.936 37.625 225.936 38.5966H226.936ZM226.271 35.6307L227.165 35.1835C226.65 34.1522 225.902 33.3254 224.932 32.7229L224.404 33.5724L223.877 34.4219C224.526 34.8252 225.023 35.3706 225.377 36.0779L226.271 35.6307ZM224.404 33.5724L224.936 32.7255C223.952 32.1081 222.816 31.8182 221.566 31.8182V32.8182V33.8182C222.499 33.8182 223.254 34.0311 223.873 34.4194L224.404 33.5724ZM221.566 32.8182V31.8182C220.192 31.8182 218.95 32.1622 217.885 32.886L218.447 33.7131L219.009 34.5401C219.7 34.0707 220.538 33.8182 221.566 33.8182V32.8182ZM218.447 33.7131L217.887 32.8848C216.873 33.5704 216.089 34.4702 215.544 35.5702L216.44 36.0142L217.336 36.4582C217.728 35.6662 218.282 35.0319 219.007 34.5414L218.447 33.7131ZM216.44 36.0142L215.544 35.5702C215.005 36.6578 214.737 37.8244 214.737 39.0568H215.737H216.737C216.737 38.1244 216.937 37.2626 217.336 36.4582L216.44 36.0142ZM215.737 39.0568H214.737V40.7955H215.737H216.737V39.0568H215.737ZM215.737 40.7955H214.737C214.737 42.3896 215.011 43.8078 215.608 45.011L216.504 44.5668L217.4 44.1225C216.974 43.2633 216.737 42.1672 216.737 40.7955H215.737ZM216.504 44.5668L215.612 45.0199C216.212 46.2002 217.061 47.1288 218.161 47.77L218.664 46.9062L219.168 46.0425C218.427 45.6098 217.835 44.9788 217.395 44.1136L216.504 44.5668ZM218.664 46.9062L218.167 47.7735C219.26 48.4011 220.506 48.6989 221.873 48.6989V47.6989V46.6989C220.803 46.6989 219.91 46.4682 219.162 46.039L218.664 46.9062ZM221.873 47.6989V48.6989C222.759 48.6989 223.588 48.5751 224.348 48.3113L224.021 47.3665L223.693 46.4216C223.176 46.6011 222.573 46.6989 221.873 46.6989V47.6989ZM224.021 47.3665L224.356 48.3088C225.13 48.0337 225.813 47.6198 226.39 47.0638L225.696 46.3438L225.002 45.6237C224.641 45.9711 224.207 46.239 223.686 46.4242L224.021 47.3665ZM225.696 46.3438L226.396 47.0573C226.98 46.4843 227.417 45.7852 227.719 44.9818L226.782 44.6307L225.846 44.2796C225.636 44.8398 225.349 45.2828 224.995 45.6302L225.696 46.3438ZM226.782 44.6307L226.512 45.5935L229.427 46.4117L229.697 45.4489L229.967 44.4861L227.053 43.6679L226.782 44.6307ZM229.697 45.4489L228.742 45.1525C228.482 45.9906 228.048 46.7237 227.431 47.3621L228.15 48.0568L228.869 48.7516C229.702 47.8899 230.299 46.8844 230.652 45.7453L229.697 45.4489ZM228.15 48.0568L227.435 47.358C226.819 47.988 226.048 48.4931 225.101 48.8644L225.466 49.7955L225.831 50.7265C227.014 50.2626 228.032 49.6086 228.865 48.7557L228.15 48.0568ZM225.466 49.7955L225.107 48.8619C224.173 49.2205 223.1 49.4091 221.873 49.4091V50.4091V51.4091C223.305 51.4091 224.627 51.1886 225.824 50.729L225.466 49.7955ZM234.593 50H233.593V51H234.593V50ZM234.593 30.3636V29.3636H233.593V30.3636H234.593ZM237.61 30.3636H238.61V29.3636H237.61V30.3636ZM237.61 38.9034H236.61V39.9034H237.61V38.9034ZM239.605 38.9034V39.9034H240.076L240.376 39.5404L239.605 38.9034ZM246.662 30.3636V29.3636H246.191L245.891 29.7266L246.662 30.3636ZM250.548 30.3636L251.314 31.0059L252.69 29.3636H250.548V30.3636ZM242.622 39.8239L241.855 39.1816L241.333 39.8049L241.837 40.4433L242.622 39.8239ZM250.65 50V51H252.713L251.435 49.3806L250.65 50ZM246.764 50L245.975 50.6139L246.275 51H246.764V50ZM240.321 41.7159L241.11 41.102L240.81 40.7159H240.321V41.7159ZM237.61 41.7159V40.7159H236.61V41.7159H237.61ZM237.61 50V51H238.61V50H237.61ZM234.593 50H235.593V30.3636H234.593H233.593V50H234.593ZM234.593 30.3636V31.3636H237.61V30.3636V29.3636H234.593V30.3636ZM237.61 30.3636H236.61V38.9034H237.61H238.61V30.3636H237.61ZM237.61 38.9034V39.9034H239.605V38.9034V37.9034H237.61V38.9034ZM239.605 38.9034L240.376 39.5404L247.432 31.0006L246.662 30.3636L245.891 29.7266L238.834 38.2664L239.605 38.9034ZM246.662 30.3636V31.3636H250.548V30.3636V29.3636H246.662V30.3636ZM250.548 30.3636L249.781 29.7214L241.855 39.1816L242.622 39.8239L243.388 40.4661L251.314 31.0059L250.548 30.3636ZM242.622 39.8239L241.837 40.4433L249.865 50.6194L250.65 50L251.435 49.3806L243.407 39.2045L242.622 39.8239ZM250.65 50V49H246.764V50V51H250.65V50ZM246.764 50L247.553 49.3861L241.11 41.102L240.321 41.7159L239.531 42.3298L245.975 50.6139L246.764 50ZM240.321 41.7159V40.7159H237.61V41.7159V42.7159H240.321V41.7159ZM237.61 41.7159H236.61V50H237.61H238.61V41.7159H237.61ZM237.61 50V49H234.593V50V51H237.61V50ZM256.32 49.7571L255.894 50.6619L255.9 50.6648L256.32 49.7571ZM253.904 47.6989L253.069 48.2499L253.072 48.2536L253.904 47.6989ZM253.674 41.6903L254.518 42.2259L254.521 42.2213L253.674 41.6903ZM257.905 39.1335L258.119 40.1104L258.126 40.1088L257.905 39.1335ZM260.628 38.6477L260.501 37.6559L260.498 37.6562L260.628 38.6477ZM263.53 38.3026L263.633 39.2973L263.643 39.2962L263.53 38.3026ZM265.167 37.8807L264.677 37.0085L264.668 37.0138L265.167 37.8807ZM264.655 33.8153L263.939 34.5137L263.944 34.5181L264.655 33.8153ZM258.161 33.7131L258.771 34.5051V34.5051L258.161 33.7131ZM256.435 35.733L256.099 36.6747L256.958 36.9815L257.342 36.1541L256.435 35.733ZM253.571 34.7102L252.652 34.3163L252.233 35.2942L253.235 35.652L253.571 34.7102ZM255.617 31.9233L256.232 32.7118L256.233 32.711L255.617 31.9233ZM258.429 30.517L258.681 31.4848L258.687 31.4833L258.429 30.517ZM263.62 30.3381L263.435 31.321L263.447 31.3231L263.62 30.3381ZM266.01 31.2457L265.496 32.1032L265.5 32.1057L266.01 31.2457ZM267.941 33.3295L267.065 33.8118V33.8118L267.941 33.3295ZM268.708 50V51H269.708V50H268.708ZM265.691 50H264.691V51H265.691V50ZM265.691 47.3409H266.691V46.3409H265.691V47.3409ZM265.537 47.3409V46.3409H264.908L264.636 46.9082L265.537 47.3409ZM264.515 48.7088L265.228 49.4096V49.4096L264.515 48.7088ZM262.61 49.9489L262.215 49.0302L262.61 49.9489ZM263.185 47.0469L262.692 46.177L262.688 46.1792L263.185 47.0469ZM265.051 45.2315L264.184 44.7332L264.18 44.7408L265.051 45.2315ZM265.691 40.1307H266.691V37.3686L264.922 39.4905L265.691 40.1307ZM264.847 40.5526L265.117 41.5156L265.129 41.5119L264.847 40.5526ZM263.364 40.8722L263.516 41.8606L263.528 41.8586L263.364 40.8722ZM261.74 41.1023L261.854 42.0959L261.868 42.0941L261.74 41.1023ZM260.475 41.2557L260.604 42.2473L260.605 42.2471L260.475 41.2557ZM258.276 41.7543L258.589 42.7042L258.596 42.7018L258.276 41.7543ZM256.64 42.7642L255.905 42.0853L255.905 42.0859L256.64 42.7642ZM257.189 46.9574L256.62 47.7796L256.63 47.7867L257.189 46.9574ZM259.708 50.4602V49.4602C258.592 49.4602 257.608 49.2507 256.74 48.8494L256.32 49.7571L255.9 50.6648C257.06 51.201 258.335 51.4602 259.708 51.4602V50.4602ZM256.32 49.7571L256.746 48.8523C255.889 48.4491 255.227 47.881 254.736 47.1442L253.904 47.6989L253.072 48.2536C253.774 49.3065 254.722 50.1105 255.894 50.6619L256.32 49.7571ZM253.904 47.6989L254.738 47.1478C254.268 46.4356 254.009 45.5447 254.009 44.4261H253.009H252.009C252.009 45.8644 252.346 47.1553 253.069 48.2499L253.904 47.6989ZM253.009 44.4261H254.009C254.009 43.4248 254.207 42.7167 254.518 42.2259L253.674 41.6903L252.829 41.1548C252.254 42.0617 252.009 43.1775 252.009 44.4261H253.009ZM253.674 41.6903L254.521 42.2213C254.872 41.6619 255.335 41.2274 255.926 40.9082L255.451 40.0284L254.975 39.1486C254.083 39.6305 253.362 40.3041 252.826 41.1594L253.674 41.6903ZM255.451 40.0284L255.926 40.9082C256.578 40.5557 257.308 40.2881 258.119 40.1104L257.905 39.1335L257.691 38.1567C256.713 38.371 255.806 38.7 254.975 39.1486L255.451 40.0284ZM257.905 39.1335L258.126 40.1088C259 39.9111 259.877 39.7546 260.758 39.6393L260.628 38.6477L260.498 37.6562C259.556 37.7795 258.618 37.9469 257.684 38.1582L257.905 39.1335ZM260.628 38.6477L260.756 39.6396C261.945 39.4867 262.903 39.3727 263.633 39.2972L263.53 38.3026L263.427 37.3079C262.674 37.3858 261.698 37.502 260.501 37.6559L260.628 38.6477ZM263.53 38.3026L263.643 39.2962C264.427 39.2071 265.141 39.049 265.665 38.7476L265.167 37.8807L264.668 37.0138C264.51 37.1044 264.133 37.2276 263.417 37.309L263.53 38.3026ZM265.167 37.8807L265.656 38.7528C266.393 38.3394 266.691 37.6145 266.691 36.858H265.691H264.691C264.691 36.9837 264.668 37.0253 264.67 37.0219C264.671 37.0199 264.674 37.014 264.68 37.008C264.686 37.0022 264.687 37.0031 264.677 37.0085L265.167 37.8807ZM265.691 36.858H266.691V36.7557H265.691H264.691V36.858H265.691ZM265.691 36.7557H266.691C266.691 35.3093 266.29 34.0477 265.367 33.1126L264.655 33.8153L263.944 34.5181C264.401 34.9807 264.691 35.6793 264.691 36.7557H265.691ZM264.655 33.8153L265.371 33.117C264.433 32.1559 263.092 31.767 261.549 31.767V32.767V33.767C262.784 33.767 263.513 34.0771 263.939 34.5137L264.655 33.8153ZM261.549 32.767V31.767C259.973 31.767 258.601 32.1113 257.55 32.9211L258.161 33.7131L258.771 34.5051C259.357 34.0535 260.244 33.767 261.549 33.767V32.767ZM258.161 33.7131L257.55 32.9211C256.643 33.6206 255.946 34.4123 255.528 35.3118L256.435 35.733L257.342 36.1541C257.589 35.6218 258.042 35.0669 258.771 34.5051L258.161 33.7131ZM256.435 35.733L256.771 34.7912L253.908 33.7685L253.571 34.7102L253.235 35.652L256.099 36.6747L256.435 35.733ZM253.571 34.7102L254.491 35.1041C254.949 34.035 255.537 33.2538 256.232 32.7118L255.617 31.9233L255.002 31.1348C253.992 31.9223 253.217 32.9991 252.652 34.3163L253.571 34.7102ZM255.617 31.9233L256.233 32.711C256.991 32.1183 257.805 31.713 258.681 31.4847L258.429 30.517L258.177 29.5493C257.025 29.8495 255.965 30.3817 255.001 31.1356L255.617 31.9233ZM258.429 30.517L258.687 31.4833C259.632 31.2314 260.551 31.108 261.446 31.108V30.108V29.108C260.365 29.108 259.273 29.2572 258.172 29.5508L258.429 30.517ZM261.446 30.108V31.108C261.999 31.108 262.66 31.1755 263.435 31.3209L263.62 30.3381L263.804 29.3552C262.943 29.1938 262.155 29.108 261.446 29.108V30.108ZM263.62 30.3381L263.447 31.3231C264.145 31.4454 264.827 31.7019 265.496 32.1032L266.01 31.2457L266.525 30.3882C265.66 29.8691 264.748 29.5205 263.792 29.3531L263.62 30.3381ZM266.01 31.2457L265.5 32.1057C266.097 32.46 266.624 33.0114 267.065 33.8118L267.941 33.3295L268.817 32.8473C268.235 31.7898 267.475 30.9519 266.521 30.3858L266.01 31.2457ZM267.941 33.3295L267.065 33.8118C267.465 34.5396 267.708 35.5977 267.708 37.0625H268.708H269.708C269.708 35.408 269.439 33.9774 268.817 32.8473L267.941 33.3295ZM268.708 37.0625H267.708V50H268.708H269.708V37.0625H268.708ZM268.708 50V49H265.691V50V51H268.708V50ZM265.691 50H266.691V47.3409H265.691H264.691V50H265.691ZM265.691 47.3409V46.3409H265.537V47.3409V48.3409H265.691V47.3409ZM265.537 47.3409L264.636 46.9082C264.495 47.202 264.232 47.5691 263.801 48.008L264.515 48.7088L265.228 49.4096C265.751 48.8769 266.171 48.3321 266.439 47.7736L265.537 47.3409ZM264.515 48.7088L263.801 48.008C263.436 48.3801 262.919 48.7274 262.215 49.0302L262.61 49.9489L263.005 50.8675C263.886 50.4885 264.639 50.0091 265.228 49.4096L264.515 48.7088ZM262.61 49.9489L262.215 49.0302C261.58 49.3031 260.756 49.4602 259.708 49.4602V50.4602V51.4602C260.944 51.4602 262.054 51.2764 263.005 50.8675L262.61 49.9489ZM260.168 47.75V48.75C261.49 48.75 262.677 48.4901 263.682 47.9146L263.185 47.0469L262.688 46.1792C262.056 46.5411 261.232 46.75 260.168 46.75V47.75ZM263.185 47.0469L263.678 47.9168C264.644 47.3691 265.406 46.6401 265.923 45.7223L265.051 45.2315L264.18 44.7408C263.862 45.3059 263.379 45.7872 262.692 46.177L263.185 47.0469ZM265.051 45.2315L265.919 45.7298C266.428 44.8439 266.691 43.8932 266.691 42.892H265.691H264.691C264.691 43.5273 264.528 44.1362 264.184 44.7332L265.051 45.2315ZM265.691 42.892H266.691V40.1307H265.691H264.691V42.892H265.691ZM265.691 40.1307L264.922 39.4905C264.956 39.4497 264.982 39.4316 264.982 39.4313C264.984 39.4305 264.971 39.4398 264.937 39.4568C264.867 39.4918 264.748 39.5394 264.565 39.5932L264.847 40.5526L265.129 41.5119C265.381 41.4379 265.62 41.3512 265.831 41.2456C266.032 41.1452 266.271 40.9969 266.459 40.7709L265.691 40.1307ZM264.847 40.5526L264.577 39.5896C264.194 39.6969 263.736 39.7963 263.2 39.8858L263.364 40.8722L263.528 41.8586C264.117 41.7605 264.648 41.6468 265.117 41.5155L264.847 40.5526ZM263.364 40.8722L263.212 39.8838C262.666 39.9678 262.132 40.0434 261.612 40.1105L261.74 41.1023L261.868 42.0941C262.405 42.0248 262.954 41.9469 263.516 41.8605L263.364 40.8722ZM261.74 41.1023L261.626 40.1088C261.104 40.1688 260.676 40.2206 260.344 40.2642L260.475 41.2557L260.605 42.2471C260.921 42.2055 261.337 42.1551 261.854 42.0958L261.74 41.1023ZM260.475 41.2557L260.345 40.2641C259.503 40.374 258.706 40.5538 257.956 40.8068L258.276 41.7543L258.596 42.7018C259.21 42.4945 259.879 42.3419 260.604 42.2473L260.475 41.2557ZM258.276 41.7543L257.963 40.8044C257.154 41.0709 256.455 41.4911 255.905 42.0853L256.64 42.7642L257.374 43.4431C257.66 43.1339 258.052 42.8808 258.589 42.7041L258.276 41.7543ZM256.64 42.7642L255.905 42.0859C255.283 42.76 255.026 43.632 255.026 44.5795H256.026H257.026C257.026 43.993 257.178 43.6547 257.374 43.4425L256.64 42.7642ZM256.026 44.5795H255.026C255.026 45.9133 255.541 47.0328 256.62 47.7796L257.189 46.9574L257.758 46.1352C257.286 45.8081 257.026 45.3424 257.026 44.5795H256.026ZM257.189 46.9574L256.63 47.7867C257.619 48.453 258.821 48.75 260.168 48.75V47.75V46.75C259.112 46.75 258.327 46.5186 257.748 46.1281L257.189 46.9574ZM274.214 57.3636H273.214V58.3636H274.214V57.3636ZM274.214 30.3636V29.3636H273.214V30.3636H274.214ZM277.129 30.3636H278.129V29.3636H277.129V30.3636ZM277.129 33.483H276.129V34.483H277.129V33.483ZM277.487 33.483V34.483H278.03L278.326 34.0279L277.487 33.483ZM278.408 32.179L277.606 31.581L277.605 31.5831L278.408 32.179ZM280.121 30.7472L280.611 31.6185L280.615 31.6166L280.121 30.7472ZM287.536 31.348L288.084 30.5116V30.5116L287.536 31.348ZM290.489 34.8636L291.395 34.441V34.441L290.489 34.8636ZM290.489 45.6406L291.395 46.0632L291.396 46.0613L290.489 45.6406ZM287.548 49.169L288.099 50.0037L288.103 50.0011L287.548 49.169ZM280.185 49.7827L279.695 50.6545L279.702 50.6587L280.185 49.7827ZM278.433 48.3381L277.633 48.9381L277.638 48.9441L278.433 48.3381ZM277.487 46.983L278.337 46.4566L278.044 45.983H277.487V46.983ZM277.232 46.983V45.983H276.232V46.983H277.232ZM277.232 57.3636V58.3636H278.232V57.3636H277.232ZM277.832 44.1065L276.899 44.4646L276.9 44.4669L277.832 44.1065ZM279.737 46.7528L279.129 47.547L279.135 47.5509L279.737 46.7528ZM285.963 46.7017L286.582 47.4872L286.583 47.4864L285.963 46.7017ZM287.881 43.9915L286.946 43.6358L286.945 43.6396L287.881 43.9915ZM287.893 36.4489L286.957 36.7992L286.96 36.8078L287.893 36.4489ZM285.989 33.8026L285.375 34.592L285.384 34.5987L285.989 33.8026ZM279.712 33.7514L280.304 34.5573L280.309 34.5534L279.712 33.7514ZM277.82 36.3338L278.752 36.6952L278.753 36.6928L277.82 36.3338ZM274.214 57.3636H275.214V30.3636H274.214H273.214V57.3636H274.214ZM274.214 30.3636V31.3636H277.129V30.3636V29.3636H274.214V30.3636ZM277.129 30.3636H276.129V33.483H277.129H278.129V30.3636H277.129ZM277.129 33.483V34.483H277.487V33.483V32.483H277.129V33.483ZM277.487 33.483L278.326 34.0279C278.531 33.7116 278.825 33.2954 279.211 32.7748L278.408 32.179L277.605 31.5831C277.207 32.1194 276.886 32.5725 276.649 32.938L277.487 33.483ZM278.408 32.179L279.209 32.7769C279.507 32.3777 279.96 31.9855 280.611 31.6185L280.121 30.7472L279.63 29.8759C278.799 30.3441 278.109 30.9064 277.606 31.581L278.408 32.179ZM280.121 30.7472L280.615 31.6166C281.159 31.3076 281.981 31.108 283.163 31.108V30.108V29.108C281.789 29.108 280.583 29.3345 279.627 29.8777L280.121 30.7472ZM283.163 30.108V31.108C284.642 31.108 285.904 31.4747 286.987 32.1844L287.536 31.348L288.084 30.5116C286.644 29.568 284.992 29.108 283.163 29.108V30.108ZM287.536 31.348L286.987 32.1844C288.076 32.8982 288.945 33.9186 289.582 35.2862L290.489 34.8636L291.395 34.441C290.618 32.7745 289.517 31.4512 288.084 30.5116L287.536 31.348ZM290.489 34.8636L289.582 35.2862C290.215 36.6439 290.55 38.2834 290.55 40.233H291.55H292.55C292.55 38.0576 292.177 36.1175 291.395 34.441L290.489 34.8636ZM291.55 40.233H290.55C290.55 42.2007 290.215 43.8536 289.581 45.22L290.489 45.6406L291.396 46.0613C292.177 44.3765 292.55 42.4243 292.55 40.233H291.55ZM290.489 45.6406L289.582 45.218C288.944 46.588 288.077 47.6145 286.994 48.337L287.548 49.169L288.103 50.0011C289.525 49.0531 290.619 47.7273 291.395 46.0632L290.489 45.6406ZM287.548 49.169L286.998 48.3344C285.923 49.0435 284.673 49.4091 283.214 49.4091V50.4091V51.4091C285.028 51.4091 286.668 50.948 288.099 50.0037L287.548 49.169ZM283.214 50.4091V49.4091C282.05 49.4091 281.226 49.2142 280.667 48.9067L280.185 49.7827L279.702 50.6587C280.661 51.1864 281.856 51.4091 283.214 51.4091V50.4091ZM280.185 49.7827L280.674 48.9108C280.002 48.533 279.535 48.134 279.229 47.732L278.433 48.3381L277.638 48.9441C278.15 49.616 278.85 50.18 279.695 50.6545L280.185 49.7827ZM278.433 48.3381L279.233 47.7381C278.833 47.2038 278.537 46.7787 278.337 46.4566L277.487 46.983L276.637 47.5093C276.881 47.9031 277.216 48.3814 277.633 48.9381L278.433 48.3381ZM277.487 46.983V45.983H277.232V46.983V47.983H277.487V46.983ZM277.232 46.983H276.232V57.3636H277.232H278.232V46.983H277.232ZM277.232 57.3636V56.3636H274.214V57.3636V58.3636H277.232V57.3636ZM277.18 40.1818H276.18C276.18 41.7609 276.412 43.1946 276.899 44.4646L277.832 44.1065L278.766 43.7485C278.384 42.7515 278.18 41.5687 278.18 40.1818H277.18ZM277.832 44.1065L276.9 44.4669C277.391 45.738 278.128 46.7802 279.129 47.547L279.737 46.7528L280.345 45.9587C279.676 45.447 279.143 44.7251 278.765 43.7461L277.832 44.1065ZM279.737 46.7528L279.135 47.5509C280.17 48.3325 281.413 48.6989 282.805 48.6989V47.6989V46.6989C281.777 46.6989 280.975 46.4346 280.34 45.9548L279.737 46.7528ZM282.805 47.6989V48.6989C284.251 48.6989 285.532 48.3142 286.582 47.4872L285.963 46.7017L285.344 45.9162C284.706 46.4188 283.883 46.6989 282.805 46.6989V47.6989ZM285.963 46.7017L286.583 47.4864C287.594 46.6877 288.334 45.6271 288.817 44.3434L287.881 43.9915L286.945 43.6396C286.575 44.6229 286.037 45.3692 285.343 45.917L285.963 46.7017ZM287.881 43.9915L288.815 44.3472C289.299 43.0764 289.533 41.6838 289.533 40.1818H288.533H287.533C287.533 41.4753 287.332 42.6224 286.946 43.6358L287.881 43.9915ZM288.533 40.1818H289.533C289.533 38.6981 289.304 37.3294 288.827 36.0899L287.893 36.4489L286.96 36.8078C287.336 37.7842 287.533 38.9042 287.533 40.1818H288.533ZM287.893 36.4489L288.83 36.0985C288.354 34.8258 287.613 33.7811 286.594 33.0064L285.989 33.8026L285.384 34.5987C286.069 35.1194 286.598 35.8389 286.957 36.7992L287.893 36.4489ZM285.989 33.8026L286.603 33.0132C285.551 32.1951 284.261 31.8182 282.805 31.8182V32.8182V33.8182C283.906 33.8182 284.739 34.0975 285.375 34.5919L285.989 33.8026ZM282.805 32.8182V31.8182C281.403 31.8182 280.151 32.1769 279.114 32.9495L279.712 33.7514L280.309 34.5534C280.942 34.0816 281.754 33.8182 282.805 33.8182V32.8182ZM279.712 33.7514L279.12 32.9455C278.109 33.6882 277.371 34.7149 276.886 35.9748L277.82 36.3338L278.753 36.6928C279.121 35.7368 279.644 35.0419 280.304 34.5573L279.712 33.7514ZM277.82 36.3338L276.887 35.9724C276.407 37.2113 276.18 38.6213 276.18 40.1818H277.18H278.18C278.18 38.8105 278.38 37.6551 278.752 36.6952L277.82 36.3338ZM309.294 38.8011H310.294V37.8011H309.294V38.8011ZM309.294 41.6136V42.6136H310.294V41.6136H309.294ZM298.453 41.6136H297.453V42.6136H298.453V41.6136ZM298.453 38.8011V37.8011H297.453V38.8011H298.453ZM299.169 30.3636H300.169V29.3636H299.169V30.3636ZM299.169 50V51H300.169V50H299.169ZM296.152 50H295.152V51H296.152V50ZM296.152 30.3636V29.3636H295.152V30.3636H296.152ZM311.595 30.3636H312.595V29.3636H311.595V30.3636ZM311.595 50V51H312.595V50H311.595ZM308.578 50H307.578V51H308.578V50ZM308.578 30.3636V29.3636H307.578V30.3636H308.578ZM309.294 38.8011H308.294V41.6136H309.294H310.294V38.8011H309.294ZM309.294 41.6136V40.6136H298.453V41.6136V42.6136H309.294V41.6136ZM298.453 41.6136H299.453V38.8011H298.453H297.453V41.6136H298.453ZM298.453 38.8011V39.8011H309.294V38.8011V37.8011H298.453V38.8011ZM299.169 30.3636H298.169V50H299.169H300.169V30.3636H299.169ZM299.169 50V49H296.152V50V51H299.169V50ZM296.152 50H297.152V30.3636H296.152H295.152V50H296.152ZM296.152 30.3636V31.3636H299.169V30.3636V29.3636H296.152V30.3636ZM311.595 30.3636H310.595V50H311.595H312.595V30.3636H311.595ZM311.595 50V49H308.578V50V51H311.595V50ZM308.578 50H309.578V30.3636H308.578H307.578V50H308.578ZM308.578 30.3636V31.3636H311.595V30.3636V29.3636H308.578V30.3636ZM328.918 50H327.918V51H328.918V50ZM328.918 33.125H329.918V32.125H328.918V33.125ZM320.928 33.9432L320.298 33.1662V33.1662L320.928 33.9432ZM320.825 38.4048L320.162 39.1528L320.167 39.1574L320.825 38.4048ZM329.685 39.2102H330.685V38.2102H329.685V39.2102ZM329.685 42.0227V43.0227H330.685V42.0227H329.685ZM319.905 41.3196L320.342 40.4205V40.4205L319.905 41.3196ZM317.68 39.3125L316.82 39.8221L316.822 39.8258L317.68 39.3125ZM320.058 31.0668L319.642 30.1577L319.639 30.159L320.058 31.0668ZM331.781 30.3636H332.781V29.3636H331.781V30.3636ZM331.781 50V51H332.781V50H331.781ZM315.827 50L314.958 49.5044L314.105 51H315.827V50ZM321.401 40.233V39.233H320.82L320.532 39.7373L321.401 40.233ZM324.673 40.233L325.542 40.7286L326.395 39.233H324.673V40.233ZM319.099 50V51H319.68L319.968 50.4956L319.099 50ZM328.918 50H329.918V33.125H328.918H327.918V50H328.918ZM328.918 33.125V32.125H323.702V33.125V34.125H328.918V33.125ZM323.702 33.125V32.125C322.378 32.125 321.204 32.4323 320.298 33.1662L320.928 33.9432L321.557 34.7202C321.998 34.3631 322.673 34.125 323.702 34.125V33.125ZM320.928 33.9432L320.298 33.1662C319.365 33.9224 318.918 34.9719 318.918 36.1932H319.918H320.918C320.918 35.5054 321.144 35.0549 321.557 34.7202L320.928 33.9432ZM319.918 36.1932H318.918C318.918 37.3665 319.308 38.3952 320.162 39.1528L320.825 38.4048L321.489 37.6568C321.133 37.3406 320.918 36.8949 320.918 36.1932H319.918ZM320.825 38.4048L320.167 39.1574C321.013 39.8975 322.112 40.2102 323.344 40.2102V39.2102V38.2102C322.445 38.2102 321.865 37.986 321.484 37.6523L320.825 38.4048ZM323.344 39.2102V40.2102H329.685V39.2102V38.2102H323.344V39.2102ZM329.685 39.2102H328.685V42.0227H329.685H330.685V39.2102H329.685ZM329.685 42.0227V41.0227H323.344V42.0227V43.0227H329.685V42.0227ZM323.344 42.0227V41.0227C322.13 41.0227 321.14 40.8088 320.342 40.4205L319.905 41.3196L319.467 42.2188C320.595 42.7679 321.898 43.0227 323.344 43.0227V42.0227ZM319.905 41.3196L320.342 40.4205C319.544 40.0316 318.953 39.492 318.539 38.7992L317.68 39.3125L316.822 39.8258C317.448 40.8716 318.34 41.6701 319.467 42.2188L319.905 41.3196ZM317.68 39.3125L318.541 38.8029C318.127 38.1049 317.901 37.2478 317.901 36.1932H316.901H315.901C315.901 37.542 316.194 38.7644 316.82 39.8221L317.68 39.3125ZM316.901 36.1932H317.901C317.901 35.1368 318.137 34.2887 318.566 33.6054L317.719 33.0739L316.872 32.5424C316.21 33.5976 315.901 34.8291 315.901 36.1932H316.901ZM317.719 33.0739L318.566 33.6054C318.999 32.9148 319.623 32.3694 320.478 31.9745L320.058 31.0668L319.639 30.159C318.465 30.7016 317.529 31.4943 316.872 32.5424L317.719 33.0739ZM320.058 31.0668L320.475 31.9758C321.339 31.58 322.404 31.3636 323.702 31.3636V30.3636V29.3636C322.187 29.3636 320.823 29.616 319.642 30.1577L320.058 31.0668ZM323.702 30.3636V31.3636H331.781V30.3636V29.3636H323.702V30.3636ZM331.781 30.3636H330.781V50H331.781H332.781V30.3636H331.781ZM331.781 50V49H328.918V50V51H331.781V50ZM315.827 50L316.695 50.4956L322.269 40.7286L321.401 40.233L320.532 39.7373L314.958 49.5044L315.827 50ZM321.401 40.233V41.233H324.673V40.233V39.233H321.401V40.233ZM324.673 40.233L323.805 39.7373L318.231 49.5044L319.099 50L319.968 50.4956L325.542 40.7286L324.673 40.233ZM319.099 50V49H315.827V50V51H319.099V50Z" fill="black" fill-opacity="0.95" mask="url(#path-1-outside-1_0_4)"/>
</svg>
